<mxfile host="app.diagrams.net" agent="Mozilla/5.0 (X11; Ubuntu; Linux x86_64; rv:129.0) Gecko/20100101 Firefox/129.0" version="24.7.8">
  <diagram name="Page-1" id="v8cpKaU_iWg27fQr8cNn">
    <mxGraphModel dx="754" dy="418" grid="0" gridSize="10" guides="1" tooltips="1" connect="1" arrows="1" fold="1" page="1" pageScale="1" pageWidth="850" pageHeight="1100" math="0" shadow="0">
      <root>
        <mxCell id="0" />
        <mxCell id="1" parent="0" />
        <mxCell id="yIpmtrZUSU28dXZRLazd-2" value="" style="rounded=0;whiteSpace=wrap;html=1;" vertex="1" parent="1">
          <mxGeometry x="245" y="392" width="396" height="191" as="geometry" />
        </mxCell>
        <mxCell id="yIpmtrZUSU28dXZRLazd-9" style="edgeStyle=orthogonalEdgeStyle;rounded=0;orthogonalLoop=1;jettySize=auto;html=1;startArrow=classic;startFill=1;" edge="1" parent="1" source="yIpmtrZUSU28dXZRLazd-1" target="yIpmtrZUSU28dXZRLazd-6">
          <mxGeometry relative="1" as="geometry">
            <Array as="points">
              <mxPoint x="429" y="354" />
              <mxPoint x="331" y="354" />
            </Array>
          </mxGeometry>
        </mxCell>
        <mxCell id="yIpmtrZUSU28dXZRLazd-10" style="edgeStyle=orthogonalEdgeStyle;rounded=0;orthogonalLoop=1;jettySize=auto;html=1;entryX=0.5;entryY=0;entryDx=0;entryDy=0;" edge="1" parent="1" source="yIpmtrZUSU28dXZRLazd-1" target="yIpmtrZUSU28dXZRLazd-7">
          <mxGeometry relative="1" as="geometry">
            <Array as="points">
              <mxPoint x="465" y="354" />
              <mxPoint x="571" y="354" />
            </Array>
          </mxGeometry>
        </mxCell>
        <mxCell id="yIpmtrZUSU28dXZRLazd-15" value="I2C" style="edgeLabel;html=1;align=center;verticalAlign=middle;resizable=0;points=[];" vertex="1" connectable="0" parent="yIpmtrZUSU28dXZRLazd-10">
          <mxGeometry x="-0.7665" y="-1" relative="1" as="geometry">
            <mxPoint x="-19" y="-1" as="offset" />
          </mxGeometry>
        </mxCell>
        <mxCell id="yIpmtrZUSU28dXZRLazd-1" value="Raspberry Pi" style="rounded=0;whiteSpace=wrap;html=1;" vertex="1" parent="1">
          <mxGeometry x="391" y="252" width="120" height="60" as="geometry" />
        </mxCell>
        <mxCell id="yIpmtrZUSU28dXZRLazd-3" value="&lt;div&gt;Balboa 32U4&lt;/div&gt;" style="text;html=1;align=center;verticalAlign=middle;resizable=0;points=[];autosize=1;strokeColor=none;fillColor=none;" vertex="1" parent="1">
          <mxGeometry x="520" y="515" width="87" height="26" as="geometry" />
        </mxCell>
        <mxCell id="yIpmtrZUSU28dXZRLazd-4" value="Micro controller" style="rounded=0;whiteSpace=wrap;html=1;" vertex="1" parent="1">
          <mxGeometry x="271" y="512.64" width="120" height="60" as="geometry" />
        </mxCell>
        <mxCell id="yIpmtrZUSU28dXZRLazd-13" style="edgeStyle=orthogonalEdgeStyle;rounded=0;orthogonalLoop=1;jettySize=auto;html=1;entryX=0.25;entryY=0;entryDx=0;entryDy=0;" edge="1" parent="1" source="yIpmtrZUSU28dXZRLazd-6" target="yIpmtrZUSU28dXZRLazd-4">
          <mxGeometry relative="1" as="geometry">
            <Array as="points">
              <mxPoint x="301" y="497" />
              <mxPoint x="301" y="497" />
            </Array>
          </mxGeometry>
        </mxCell>
        <mxCell id="yIpmtrZUSU28dXZRLazd-14" value="Actuators" style="edgeLabel;html=1;align=center;verticalAlign=middle;resizable=0;points=[];" vertex="1" connectable="0" parent="yIpmtrZUSU28dXZRLazd-13">
          <mxGeometry x="-0.0877" relative="1" as="geometry">
            <mxPoint x="-25" y="1" as="offset" />
          </mxGeometry>
        </mxCell>
        <mxCell id="yIpmtrZUSU28dXZRLazd-6" value="&lt;div&gt;Shared memory&lt;/div&gt;&lt;div&gt;&lt;i&gt;&lt;font style=&quot;font-size: 9px;&quot;&gt;Astar interface&lt;/font&gt;&lt;/i&gt;&lt;br&gt;&lt;/div&gt;" style="rounded=0;whiteSpace=wrap;html=1;" vertex="1" parent="1">
          <mxGeometry x="271" y="406" width="120" height="60" as="geometry" />
        </mxCell>
        <mxCell id="yIpmtrZUSU28dXZRLazd-7" value="IMU" style="rounded=0;whiteSpace=wrap;html=1;" vertex="1" parent="1">
          <mxGeometry x="511" y="406" width="120" height="60" as="geometry" />
        </mxCell>
        <mxCell id="yIpmtrZUSU28dXZRLazd-11" style="edgeStyle=orthogonalEdgeStyle;rounded=0;orthogonalLoop=1;jettySize=auto;html=1;entryX=0.769;entryY=0.991;entryDx=0;entryDy=0;entryPerimeter=0;" edge="1" parent="1" source="yIpmtrZUSU28dXZRLazd-4" target="yIpmtrZUSU28dXZRLazd-6">
          <mxGeometry relative="1" as="geometry">
            <Array as="points">
              <mxPoint x="363" y="511" />
              <mxPoint x="363" y="511" />
            </Array>
          </mxGeometry>
        </mxCell>
        <mxCell id="yIpmtrZUSU28dXZRLazd-12" value="&lt;div&gt;Encoders&lt;/div&gt;" style="edgeLabel;html=1;align=center;verticalAlign=middle;resizable=0;points=[];" vertex="1" connectable="0" parent="yIpmtrZUSU28dXZRLazd-11">
          <mxGeometry x="0.0599" relative="1" as="geometry">
            <mxPoint x="24" y="1" as="offset" />
          </mxGeometry>
        </mxCell>
      </root>
    </mxGraphModel>
  </diagram>
</mxfile>
